<svg xmlns="http://www.w3.org/2000/svg" height="25.41" width="19.063"><path d="M16.421 25.42H2.643a2.66 2.66 0 0 1-2.638-2.68v-8.65a2.668 2.668 0 0 1 2.093-2.62v-3.9a7.433 7.433 0 1 1 14.864 0v3.9a2.67 2.67 0 0 1 2.092 2.62v8.65a2.655 2.655 0 0 1-2.633 2.68zM9.53 15.45a2.35 2.35 0 0 0-2.331 2.37 2.379 2.379 0 0 0 1.171 2.05v2.64h2.325v-2.64a2.375 2.375 0 0 0 1.165-2.05 2.349 2.349 0 0 0-2.33-2.37zm0-11.49a3.587 3.587 0 0 0-3.555 3.61v3.85h7.109V7.57A3.587 3.587 0 0 0 9.53 3.96z" fill="#10d67b" fill-rule="evenodd"/></svg>