<svg xmlns="http://www.w3.org/2000/svg" height="15.06" width="34.125"><path d="M7.752-.01c3.849 0 6.678 2.52 9.3 5.3 2.631-2.78 5.457-5.3 9.309-5.3a7.543 7.543 0 1 1 0 15.08c-3.852 0-6.678-2.52-9.309-5.29-2.627 2.77-5.456 5.29-9.3 5.29a7.543 7.543 0 1 1 0-15.08zm0 12.06c2.672 0 4.921-2.08 7.215-4.52-2.294-2.44-4.543-4.52-7.215-4.52a4.522 4.522 0 1 0 0 9.04zm18.614 0a4.522 4.522 0 1 0 0-9.04c-2.675 0-4.922 2.08-7.215 4.52 2.293 2.44 4.54 4.52 7.215 4.52z" fill="#10d67b" fill-rule="evenodd"/></svg>