<svg xmlns="http://www.w3.org/2000/svg" height="21.44" width="30.97"><path d="M3.03 15.26a3.02 3.02 0 0 1 1.12.22L9.72 8.2a3.115 3.115 0 0 1 .31-3.99 2.994 2.994 0 0 1 4.28 0 3.1 3.1 0 0 1 .89 2.18 3.189 3.189 0 0 1-.57 1.81l3.04 3.98a2.981 2.981 0 0 1 1.12-.22 2.9 2.9 0 0 1 1.14.23l5.56-7.27a3.146 3.146 0 0 1-.59-1.83 3.1 3.1 0 0 1 .89-2.18 2.971 2.971 0 0 1 4.28 0 3.115 3.115 0 0 1 0 4.36 2.975 2.975 0 0 1-2.14.9 3.015 3.015 0 0 1-1.09-.2l-5.58 7.3a3.147 3.147 0 0 1-.33 3.96 3.033 3.033 0 0 1-2.14.9 3 3 0 0 1-2.14-.9 3.134 3.134 0 0 1-.32-3.99l-3.04-3.98a2.981 2.981 0 0 1-1.12.22 3.02 3.02 0 0 1-1.12-.22l-5.57 7.28a3.147 3.147 0 0 1 .58 1.81 3.1 3.1 0 0 1-.89 2.18 2.994 2.994 0 0 1-4.28 0 3.115 3.115 0 0 1 0-4.36 2.984 2.984 0 0 1 2.14-.91z" fill="#10d67b" fill-rule="evenodd"/></svg>