<svg xmlns="http://www.w3.org/2000/svg" height="26.97" width="22.22"><path d="M21.89.33a1.045 1.045 0 0 0-.79-.34h-20a1.039 1.039 0 0 0-.78.34 1.066 1.066 0 0 0-.33.78v13.5a8.03 8.03 0 0 0 .58 2.99 11.12 11.12 0 0 0 1.44 2.64 16.915 16.915 0 0 0 2.05 2.24 23.364 23.364 0 0 0 2.2 1.81c.67.48 1.37.93 2.1 1.36s1.25.72 1.55.87.55.27.74.35a1 1 0 0 0 .45.11 1.072 1.072 0 0 0 .46-.11c.18-.08.43-.2.73-.35s.82-.45 1.56-.87 1.42-.88 2.1-1.36a24.705 24.705 0 0 0 2.19-1.81 15.648 15.648 0 0 0 2.05-2.24 11.12 11.12 0 0 0 1.44-2.64 7.835 7.835 0 0 0 .58-2.99V1.11a1.057 1.057 0 0 0-.32-.78zm-3.01 14.28q0 3.09-4.08 6.32a24.353 24.353 0 0 1-3.7 2.41V3.36h7.78v11.25z" fill="#10d67b" fill-rule="evenodd"/></svg>