<svg xmlns="http://www.w3.org/2000/svg" height="49" width="49"><path d="M43.069 40.48a24.5 24.5 0 0 0 .142-31.8l3.638-3.64a2.044 2.044 0 0 0-2.891-2.89l-3.639 3.64a24.516 24.516 0 0 0-31.646 0L5.03 2.15a2.042 2.042 0 0 0-2.887 2.89l3.639 3.64a24.532 24.532 0 0 0 0 31.64l-3.639 3.64a2.042 2.042 0 0 0 2.887 2.89l3.643-3.64a24.5 24.5 0 0 0 31.476.13l3.65 3.65a2.044 2.044 0 1 0 2.891-2.89zm1.839-15.98a20.245 20.245 0 0 1-4.737 13.08l-4.84-4.84a13.613 13.613 0 0 0 .127-16.31l4.851-4.85a20.252 20.252 0 0 1 4.6 12.92zm-27.147 6.74a9.533 9.533 0 1 1 6.739 2.79 9.461 9.461 0 0 1-6.739-2.79zm6.732-27.16A20.224 20.224 0 0 1 37.41 8.69l-4.85 4.85a13.611 13.611 0 0 0-16.139 0l-4.85-4.85a20.3 20.3 0 0 1 12.922-4.61zm-15.8 7.5l4.851 4.85a13.613 13.613 0 0 0 0 16.14l-4.851 4.85a20.437 20.437 0 0 1 0-25.84zm15.8 33.34a20.224 20.224 0 0 1-12.922-4.61l4.85-4.85a13.6 13.6 0 0 0 15.969.12l4.861 4.86a20.241 20.241 0 0 1-12.758 4.48z" fill="#fff" fill-rule="evenodd"/></svg>