<svg xmlns="http://www.w3.org/2000/svg" height="56" width="57"><path d="M39.588 35.97l16.747 16.51A2.135 2.135 0 0 1 57 54.01a2.157 2.157 0 0 1-.665 1.54 2.116 2.116 0 0 1-1.753.45 5.739 5.739 0 0 1-1-.05 1.475 1.475 0 0 1-.759-.4L36.255 39.21a22.676 22.676 0 0 1-6.484 3.59 22.041 22.041 0 0 1-7.413 1.29 22.447 22.447 0 0 1-15.753-6.52 21.558 21.558 0 0 1 0-31.06 22.313 22.313 0 0 1 31.5 0 21.831 21.831 0 0 1 6.607 15.53 21.3 21.3 0 0 1-1.35 7.45 22.5 22.5 0 0 1-3.78 6.48zM8.624 21.34h3.687a9.148 9.148 0 0 1 9.2-9.07V8.64A12.816 12.816 0 0 0 8.62 21.34zm1.04 13.22a18.221 18.221 0 0 0 25.389 0 17.593 17.593 0 0 0 0-25.03 18.2 18.2 0 0 0-25.389 0 17.6 17.6 0 0 0 0 25.03z" fill="#fff" fill-rule="evenodd"/></svg>