<svg xmlns="http://www.w3.org/2000/svg" height="50.03" width="60"><path d="M58.19 16.91a1.721 1.721 0 0 1 1.24.45h.01a1.74 1.74 0 0 1 .56 1.21 1.779 1.779 0 0 1-.44 1.25h-.01l-5.37 5.99a1.731 1.731 0 0 1-.84.52 1.815 1.815 0 0 1-.98-.03 2.408 2.408 0 0 1-.33-.15 3.155 3.155 0 0 1-.29-.22v-.01l-5.92-5.42-.01-.01a1.684 1.684 0 0 1-.55-1.2 1.707 1.707 0 0 1 .44-1.25l.01-.01a1.693 1.693 0 0 1 2.41-.13l.01.01v.01l2.59 2.37A21.246 21.246 0 0 0 36.63 4.58l-.01-.01a21.017 21.017 0 0 0-16.23 1.24A21.35 21.35 0 0 0 9.77 18.27v.01a1.746 1.746 0 0 1-.87 1.01 1.7 1.7 0 0 1-2.31-.78 1.718 1.718 0 0 1-.1-1.32A24.821 24.821 0 0 1 18.84 2.7 24.344 24.344 0 0 1 37.7 1.26a24.625 24.625 0 0 1 11.42 7.9 25.041 25.041 0 0 1 5.16 11.35L57 17.48a1.685 1.685 0 0 1 1.19-.57zM29.15 32.4l10.02-10.35a2.1 2.1 0 0 0-.03-2.94 2.049 2.049 0 0 0-2.92.03l-8.66 8.96-3.78-3.29a2.051 2.051 0 0 0-2.91.22 2.1 2.1 0 0 0 .22 2.94l5.24 4.56a2.123 2.123 0 0 0 .85.45 2.054 2.054 0 0 0 1.97-.58zm21.89-1.69a1.693 1.693 0 0 1 1.31-.1 1.7 1.7 0 0 1 1 .87 1.738 1.738 0 0 1 .14 1.21v.01l-.04.12a24.865 24.865 0 0 1-12.34 14.49 24.452 24.452 0 0 1-18.76 1.47l-.11-.03a24.618 24.618 0 0 1-11.4-7.9 24.947 24.947 0 0 1-5.17-11.32L3 32.51a1.839 1.839 0 0 1-.84.51 1.776 1.776 0 0 1-.97-.03 1.825 1.825 0 0 1-.32-.14 1.909 1.909 0 0 1-.3-.22A1.729 1.729 0 0 1 0 31.42a1.8 1.8 0 0 1 .44-1.26h.01l5.37-5.99v-.01h.01a1.711 1.711 0 0 1 1.18-.56 1.665 1.665 0 0 1 1.24.45c1.85 1.86 4.07 3.57 5.93 5.43a1.778 1.778 0 0 1 .56 1.21 1.75 1.75 0 0 1-.44 1.25v.01l-.01.01a1.717 1.717 0 0 1-2.42.12l-.01-.02-2.66-2.44a21.575 21.575 0 0 0 4.31 9.03 21.28 21.28 0 0 0 9.81 6.79 21.017 21.017 0 0 0 16.23-1.24 21.4 21.4 0 0 0 10.62-12.47 1.766 1.766 0 0 1 .87-1.02z" fill="#fff" fill-rule="evenodd"/></svg>